# xmcd
#
# Track frame offsets: 
#        150
#        20042
#        39612
#        64092
#        81890
#        98990
#        114190
#        124170
#        140877
#        152455
#        169475
#        180917
#        197567
#        219487
#        238225
#        252875
#        269212
#        284617
#
# Disc length: 4078 seconds
#
# Revision: 2
# Processed by: cddbd v1.5.2PL0 Copyright (c) Steve Scherf et al.
# Submitted via: ExactAudioCopy v0.99pb3
#
DISCID=110fec12
DTITLE=Palermo Boogie Gang - Anniversary
DYEAR=1996
DGENRE=
TTITLE0=Goin' To Budapest
TTITLE1=Five Long Years
TTITLE2=Iko Iko
TTITLE3=Dough Roller Blues
TTITLE4=C. C. Rider
TTITLE5=Hey Little Lee
TTITLE6=Sugar Sweet
TTITLE7=Hard Times
TTITLE8=Walkin' Blues
TTITLE9=Mean Mistreatin' Mama
TTITLE10=Rockin' Pneumonia
TTITLE11=Pinetop's Boogie
TTITLE12=Send Me Someone To Love
TTITLE13=I Just Wanna Make Love To You
TTITLE14=Baby What You Want Me To Do - You Got Me Runnin'
TTITLE15=Rock Me Slow
TTITLE16=Can't Be Satisfied
TTITLE17=Enjoy The Sound
EXTD=
EXTT0=
EXTT1=
EXTT2=
EXTT3=
EXTT4=
EXTT5=
EXTT6=
EXTT7=
EXTT8=
EXTT9=
EXTT10=
EXTT11=
EXTT12=
EXTT13=
EXTT14=
EXTT15=
EXTT16=
EXTT17=
PLAYORDER=
